<?xml version="1.0" encoding="UTF-8"?><svg id="Capa_2" xmlns="http://www.w3.org/2000/svg" viewBox="0 0 370.98 77.04"><defs><style>.cls-1{fill:none;stroke:#ff5600;stroke-miterlimit:10;stroke-width:2.42px;}.cls-2{fill:#ff5600;}.cls-3{fill:#333;}</style></defs><g id="Capa_1-2"><path class="cls-2" d="M93.9,35.05V10.05h11.32c3.38,0,5.66.59,6.84,1.77,1.18,1.18,1.77,3.45,1.77,6.82s-.56,5.57-1.69,6.67c-1.12,1.1-3.39,1.65-6.81,1.65l-1.1.02h-5.59v8.08h-4.74ZM98.65,22.98h5.4c2.15,0,3.51-.25,4.09-.74.58-.49.87-1.66.87-3.51,0-2.11-.24-3.42-.72-3.93-.48-.51-1.74-.76-3.76-.76h-5.88v8.94Z"/><path class="cls-2" d="M127.23,9.83c4.54,0,7.47.75,8.77,2.26,1.31,1.51,1.96,4.88,1.96,10.12,0,5.73-.66,9.33-1.97,10.82-1.31,1.49-4.49,2.23-9.53,2.23-4.54,0-7.48-.74-8.81-2.21-1.33-1.47-2-4.71-2-9.72,0-5.96.65-9.7,1.96-11.23,1.31-1.53,4.51-2.29,9.61-2.29ZM126.87,13.9c-3.19,0-5.05.41-5.59,1.23-.54.82-.81,3.65-.81,8.5,0,3.59.31,5.75.94,6.48.63.73,2.48,1.1,5.56,1.1s4.71-.41,5.29-1.24.88-3.32.88-7.5-.28-6.66-.83-7.43c-.56-.76-2.37-1.14-5.45-1.14Z"/><path class="cls-2" d="M141.17,35.05V10.05h12.33c3.06,0,5.18.53,6.34,1.59,1.16,1.06,1.74,2.99,1.74,5.77,0,2.53-.29,4.26-.87,5.18s-1.77,1.57-3.56,1.92v.16c2.77.17,4.16,1.79,4.16,4.85v5.51h-4.74v-4.56c0-2.58-1.27-3.86-3.81-3.86h-6.83v8.42h-4.74ZM145.92,22.64h6.81c1.62,0,2.7-.29,3.23-.87.53-.58.8-1.74.8-3.49s-.23-2.93-.69-3.45c-.46-.52-1.46-.78-3.01-.78h-7.14v8.59Z"/><path class="cls-2" d="M175.31,14.3v20.75h-4.74V14.3h-7.22v-4.25h19.43v4.25h-7.47Z"/><path class="cls-2" d="M200.31,30.25h-10.79l-1.56,4.8h-5.02l8.31-25h7.12l8.44,25h-4.93l-1.59-4.8ZM199.21,26.76l-4.32-13.02-4.25,13.02h8.57Z"/><path class="cls-2" d="M213.73,10.05v20.75h11.72v4.25h-16.46V10.05h4.74Z"/><path class="cls-3" d="M253.24,10.05h5.02l-8.06,25h-7.29l-7.99-25h4.93l4.69,14.16c.44,1.36,1.09,3.63,1.96,6.81h.13l.48-1.7c.59-2.12,1.09-3.82,1.5-5.09l4.63-14.18Z"/><path class="cls-3" d="M264.57,14.05v6.45h11.72v3.5h-11.72v7.07h12.47v3.99h-17.21V10.05h17.11v3.99h-12.36Z"/><path class="cls-3" d="M303.78,10.05v25h-8.04l-7.14-13.72c-.35-.68-.91-1.88-1.67-3.59l-.81-1.79-.79-1.79h-.18l.07,1.65.05,1.63.04,3.28v14.34h-4.74V10.05h8.04l6.5,12.67c.57,1.12,1.24,2.48,2,4.08l.95,2.03.95,2.05h.17l-.05-1.61-.05-1.61-.04-3.22v-14.4h4.74Z"/><path class="cls-3" d="M318.14,14.3v20.75h-4.74V14.3h-7.22v-4.25h19.43v4.25h-7.47Z"/><path class="cls-3" d="M343.14,30.25h-10.79l-1.56,4.8h-5.02l8.32-25h7.12l8.44,25h-4.93l-1.59-4.8ZM342.04,26.76l-4.32-13.02-4.25,13.02h8.57Z"/><path class="cls-3" d="M370.37,17.34h-4.63c-.02-.23-.04-.4-.04-.51-.11-1.4-.42-2.29-.93-2.65-.51-.36-1.72-.54-3.63-.54-2.25,0-3.71.21-4.4.62-.69.42-1.04,1.29-1.04,2.62,0,1.58.28,2.52.84,2.84s2.42.56,5.57.73c3.72.21,6.13.74,7.22,1.59s1.64,2.63,1.64,5.33c0,3.32-.64,5.47-1.92,6.44-1.28.97-4.11,1.46-8.48,1.46-3.93,0-6.54-.48-7.83-1.43s-1.93-2.88-1.93-5.79l-.02-.92h4.62l.02.53c0,1.75.3,2.81.92,3.21.61.39,2.28.59,5,.59,2.12,0,3.48-.23,4.07-.68.59-.45.88-1.5.88-3.13,0-1.21-.22-2.01-.67-2.41-.45-.4-1.41-.64-2.88-.72l-2.62-.17c-3.96-.23-6.48-.78-7.58-1.65s-1.65-2.73-1.65-5.59.66-4.86,1.99-5.83c1.32-.97,3.97-1.46,7.94-1.46,3.76,0,6.29.45,7.6,1.34,1.31.89,1.96,2.63,1.96,5.22v.95Z"/><path class="cls-2" d="M97.1,54.81v4.22h7.68v2.29h-7.68v4.63h8.17v2.62h-11.28v-16.38h11.21v2.62h-8.1Z"/><path class="cls-2" d="M124.7,52.2v16.38h-3.11v-16.38h3.11Z"/><path class="cls-2" d="M146.74,52.2v16.38h-5.27l-4.68-8.99c-.23-.45-.6-1.23-1.09-2.35l-.53-1.18-.52-1.18h-.12l.05,1.08.04,1.07.02,2.15v9.4h-3.11v-16.38h5.27l4.26,8.3c.38.74.81,1.63,1.31,2.68l.62,1.33.62,1.34h.11l-.04-1.06-.04-1.06-.02-2.11v-9.43h3.11Z"/><path class="cls-2" d="M165.71,56.97h-3.04c-.02-.15-.02-.26-.02-.34-.07-.92-.28-1.5-.61-1.73-.34-.24-1.13-.35-2.38-.35-1.47,0-2.43.14-2.89.41-.45.27-.68.84-.68,1.72,0,1.03.18,1.65.55,1.86.37.21,1.58.37,3.65.48,2.44.14,4.02.48,4.73,1.04.72.56,1.07,1.72,1.07,3.49,0,2.18-.42,3.58-1.26,4.22-.84.64-2.69.95-5.56.95-2.58,0-4.29-.31-5.13-.94-.84-.62-1.27-1.89-1.27-3.79v-.6s3.01,0,3.01,0v.35c.01,1.14.21,1.84.61,2.1.4.26,1.49.38,3.28.38,1.39,0,2.28-.15,2.66-.44.38-.3.58-.98.58-2.05,0-.79-.15-1.32-.44-1.58-.29-.26-.92-.42-1.89-.47l-1.72-.11c-2.59-.15-4.25-.51-4.97-1.08-.72-.57-1.08-1.79-1.08-3.66s.43-3.19,1.3-3.82c.87-.64,2.6-.95,5.2-.95,2.46,0,4.12.29,4.98.88s1.28,1.72,1.28,3.42v.62Z"/><path class="cls-2" d="M182.73,52.2h3.11v10.9c0,2.28-.44,3.79-1.31,4.52-.88.74-2.67,1.1-5.37,1.1-2.86,0-4.73-.35-5.62-1.04-.89-.7-1.33-2.16-1.33-4.4v-11.08h3.11v11.08c0,1.21.22,1.97.65,2.3s1.45.49,3.05.49,2.67-.16,3.09-.49c.42-.33.63-1.13.63-2.41v-10.96Z"/><path class="cls-2" d="M211.79,52.2v16.38h-3.11v-8.93c0-.71.02-1.52.06-2.42l.06-1.22.06-1.21h-.1l-.37,1.14-.36,1.14c-.34,1.02-.6,1.78-.78,2.27l-3.6,9.24h-2.83l-3.64-9.17c-.2-.5-.46-1.26-.79-2.27l-.37-1.14-.37-1.13h-.1l.06,1.19.06,1.2c.05.93.07,1.72.07,2.39v8.93h-3.11v-16.38h5.06l2.93,7.58c.2.53.46,1.28.79,2.27l.36,1.14.37,1.13h.11l.35-1.13.36-1.13c.3-.95.55-1.7.77-2.26l2.88-7.61h5.17Z"/><path class="cls-2" d="M225.4,52.05c2.98,0,4.89.49,5.75,1.48.86.99,1.28,3.2,1.28,6.63,0,3.75-.43,6.12-1.29,7.09-.86.98-2.94,1.46-6.25,1.46-2.98,0-4.9-.48-5.77-1.45s-1.31-3.09-1.31-6.37c0-3.9.43-6.36,1.28-7.36.86-1,2.96-1.5,6.3-1.5ZM225.16,54.72c-2.09,0-3.31.27-3.66.8-.35.54-.53,2.39-.53,5.57,0,2.35.21,3.77.62,4.25.41.48,1.63.72,3.64.72s3.08-.27,3.47-.81.58-2.18.58-4.91-.18-4.37-.55-4.87c-.36-.5-1.55-.75-3.57-.75Z"/><path class="cls-2" d="M250.62,56.97h-3.04c-.02-.15-.02-.26-.02-.34-.07-.92-.28-1.5-.61-1.73-.34-.24-1.13-.35-2.38-.35-1.47,0-2.43.14-2.89.41-.45.27-.68.84-.68,1.72,0,1.03.18,1.65.55,1.86.37.21,1.58.37,3.65.48,2.44.14,4.02.48,4.73,1.04.72.56,1.07,1.72,1.07,3.49,0,2.18-.42,3.58-1.26,4.22-.84.64-2.69.95-5.55.95-2.58,0-4.29-.31-5.13-.94s-1.27-1.89-1.27-3.79v-.6s3.01,0,3.01,0v.35c.01,1.14.21,1.84.61,2.1.4.26,1.49.38,3.28.38,1.39,0,2.28-.15,2.66-.44.38-.3.58-.98.58-2.05,0-.79-.15-1.32-.44-1.58-.29-.26-.92-.42-1.89-.47l-1.72-.11c-2.59-.15-4.25-.51-4.97-1.08-.72-.57-1.08-1.79-1.08-3.66s.43-3.19,1.3-3.82,2.6-.95,5.2-.95c2.46,0,4.12.29,4.98.88.86.58,1.28,1.72,1.28,3.42v.62Z"/><line class="cls-1" x1="93.92" y1="43.15" x2="369.45" y2="43.15"/><rect class="cls-3" width="77.04" height="77.04" rx="7.04" ry="7.04"/><polygon class="cls-2" points="38.52 8.46 15.71 30.84 23.44 30.84 23.44 68.58 53.59 68.58 53.59 64.55 25.09 47.6 31.88 47.6 53.59 60.51 53.59 55.99 31.77 43.01 38.56 43.01 53.59 51.95 53.59 47.43 38.45 38.42 45.24 38.42 53.59 43.39 53.59 38.87 45.13 33.83 51.92 33.83 53.59 34.82 53.59 30.84 61.33 30.84 38.52 8.46"/></g></svg>